<svg width="123" height="19" viewBox="0 0 123 19" fill="none" xmlns="http://www.w3.org/2000/svg">
<path d="M7.56 18.36C5.33333 18.36 3.62 18.0133 2.42 17.32C1.23333 16.6267 0.506667 15.5867 0.24 14.2H3.94C4.1 14.7733 4.46667 15.1933 5.04 15.46C5.61333 15.7133 6.50667 15.84 7.72 15.84C8.88 15.84 9.67333 15.72 10.1 15.48C10.54 15.24 10.76 14.9133 10.76 14.5C10.76 14.2333 10.6533 14.0333 10.44 13.9C10.2267 13.7533 9.82 13.6467 9.22 13.58C8.63333 13.5 7.76667 13.4333 6.62 13.38C4.60667 13.3 3.11333 13.0133 2.14 12.52C1.16667 12.0267 0.68 11.2 0.68 10.04C0.68 9.29333 0.9 8.62667 1.34 8.04C1.78 7.44 2.44667 6.97333 3.34 6.64C4.23333 6.29333 5.37333 6.12 6.76 6.12C8.8 6.12 10.3933 6.44667 11.54 7.1C12.6867 7.74 13.44 8.72667 13.8 10.06H10.32C10.1733 9.48667 9.78667 9.08667 9.16 8.86C8.54667 8.63333 7.74 8.52 6.74 8.52C5.96667 8.52 5.36667 8.58 4.94 8.7C4.52667 8.80667 4.23333 8.96 4.06 9.16C3.9 9.34667 3.82 9.55333 3.82 9.78C3.82 10.0333 3.91333 10.24 4.1 10.4C4.3 10.5467 4.68667 10.66 5.26 10.74C5.83333 10.82 6.68667 10.8867 7.82 10.94C9.35333 11.02 10.5667 11.18 11.46 11.42C12.3533 11.6467 12.9933 12 13.38 12.48C13.7667 12.96 13.96 13.6067 13.96 14.42C13.96 15.5533 13.42 16.4933 12.34 17.24C11.2733 17.9867 9.68 18.36 7.56 18.36ZM17.8755 18L13.9955 6.52H17.3355L19.7155 14.08L23.2955 6.52H25.7755L29.0955 14.16L31.9155 6.52H35.1555L30.6355 18H27.8755L24.4555 10.26L20.6955 18H17.8755ZM39.7363 18.36C38.2163 18.36 37.0563 18.0933 36.2563 17.56C35.4563 17.0133 35.0563 16.2067 35.0563 15.14V15.12C35.0563 14.4667 35.1963 13.8933 35.4763 13.4C35.7696 12.9067 36.2163 12.5133 36.8163 12.22C37.1896 12.0333 37.5896 11.88 38.0163 11.76C38.4563 11.64 39.0163 11.54 39.6963 11.46C40.3896 11.3667 41.2963 11.28 42.4163 11.2C43.2429 11.1467 43.8829 11.08 44.3363 11C44.8029 10.92 45.1296 10.8067 45.3163 10.66C45.5029 10.5133 45.5963 10.3067 45.5963 10.04V10.02C45.5963 9.62 45.3763 9.26667 44.9363 8.96C44.4963 8.65333 43.6896 8.5 42.5163 8.5C41.1429 8.5 40.1763 8.66667 39.6163 9C39.0696 9.33333 38.7629 9.84 38.6963 10.52H35.3563C35.5163 9.05333 36.1829 7.96 37.3563 7.24C38.5296 6.50667 40.1563 6.14 42.2363 6.14C43.6763 6.14 44.8696 6.28 45.8163 6.56C46.7763 6.84 47.4963 7.32 47.9763 8C48.4563 8.66667 48.6963 9.58 48.6963 10.74V18H46.0763L45.7763 15.36C45.3229 16.2267 44.5896 16.9467 43.5763 17.52C42.5763 18.08 41.2963 18.36 39.7363 18.36ZM40.7163 16.04C41.6763 16.04 42.5229 15.8667 43.2563 15.52C44.0029 15.1733 44.5829 14.7333 44.9963 14.2C45.4096 13.6667 45.6163 13.12 45.6163 12.56V12.38C45.4429 12.58 45.1296 12.74 44.6763 12.86C44.2363 12.98 43.6029 13.0733 42.7763 13.14C41.7629 13.2067 40.9896 13.2867 40.4563 13.38C39.9229 13.46 39.5096 13.58 39.2163 13.74C38.7496 13.98 38.5163 14.3333 38.5163 14.8V14.82C38.5163 15.22 38.6829 15.5267 39.0163 15.74C39.3629 15.94 39.9296 16.04 40.7163 16.04ZM56.6022 18.32C55.4289 18.32 54.3689 18.1133 53.4222 17.7C52.4889 17.2867 51.7489 16.64 51.2022 15.76C50.6555 14.88 50.3822 13.74 50.3822 12.34V12.3C50.3822 10.9933 50.6422 9.88667 51.1622 8.98C51.6822 8.06 52.4155 7.36 53.3622 6.88C54.3089 6.4 55.4289 6.16 56.7222 6.16C57.8022 6.16 58.7489 6.35333 59.5622 6.74C60.3755 7.11333 61.0155 7.67333 61.4822 8.42V3.26H64.6422V18H61.8622L61.6222 15.78C61.2089 16.5933 60.5822 17.22 59.7422 17.66C58.9155 18.1 57.8689 18.32 56.6022 18.32ZM57.5822 15.68C58.9155 15.68 59.9155 15.3933 60.5822 14.82C61.2489 14.2467 61.5822 13.4133 61.5822 12.32V12.28C61.5822 11.1733 61.2355 10.3133 60.5422 9.7C59.8489 9.07333 58.8755 8.76 57.6222 8.76C56.2622 8.76 55.2622 9.07333 54.6222 9.7C53.9955 10.3133 53.6822 11.18 53.6822 12.3V12.34C53.6822 13.4733 53.9955 14.3133 54.6222 14.86C55.2622 15.4067 56.2489 15.68 57.5822 15.68ZM73.4489 18.36C71.7289 18.36 70.3489 18.1133 69.3089 17.62C68.2822 17.1267 67.5356 16.44 67.0689 15.56C66.6022 14.68 66.3689 13.6533 66.3689 12.48V12.42C66.3689 11.26 66.6422 10.2067 67.1889 9.26C67.7356 8.3 68.5489 7.54 69.6289 6.98C70.7222 6.40667 72.0689 6.12 73.6689 6.12C75.2022 6.12 76.5022 6.37333 77.5689 6.88C78.6356 7.38667 79.4422 8.09333 79.9889 9C80.5489 9.90667 80.8289 10.9733 80.8289 12.2V13.42H69.4689C69.6422 14.2067 70.0622 14.8067 70.7289 15.22C71.3956 15.6333 72.3822 15.84 73.6889 15.84C74.6622 15.84 75.4156 15.7333 75.9489 15.52C76.4822 15.3067 76.8756 14.9933 77.1289 14.58H80.6889C80.1289 15.9533 79.2356 16.9267 78.0089 17.5C76.7822 18.0733 75.2622 18.36 73.4489 18.36ZM73.7489 8.62C72.5356 8.62 71.5822 8.83333 70.8889 9.26C70.1956 9.68667 69.7356 10.2933 69.5089 11.08H77.6289C77.4556 10.2133 77.0556 9.58667 76.4289 9.2C75.8022 8.81333 74.9089 8.62 73.7489 8.62ZM89.0756 18.36C86.849 18.36 85.1356 18.0133 83.9356 17.32C82.749 16.6267 82.0223 15.5867 81.7556 14.2H85.4556C85.6156 14.7733 85.9823 15.1933 86.5556 15.46C87.129 15.7133 88.0223 15.84 89.2356 15.84C90.3956 15.84 91.189 15.72 91.6156 15.48C92.0556 15.24 92.2756 14.9133 92.2756 14.5C92.2756 14.2333 92.169 14.0333 91.9556 13.9C91.7423 13.7533 91.3356 13.6467 90.7356 13.58C90.149 13.5 89.2823 13.4333 88.1356 13.38C86.1223 13.3 84.629 13.0133 83.6556 12.52C82.6823 12.0267 82.1956 11.2 82.1956 10.04C82.1956 9.29333 82.4156 8.62667 82.8556 8.04C83.2956 7.44 83.9623 6.97333 84.8556 6.64C85.749 6.29333 86.889 6.12 88.2756 6.12C90.3156 6.12 91.909 6.44667 93.0556 7.1C94.2023 7.74 94.9556 8.72667 95.3156 10.06H91.8356C91.689 9.48667 91.3023 9.08667 90.6756 8.86C90.0623 8.63333 89.2556 8.52 88.2556 8.52C87.4823 8.52 86.8823 8.58 86.4556 8.7C86.0423 8.80667 85.749 8.96 85.5756 9.16C85.4156 9.34667 85.3356 9.55333 85.3356 9.78C85.3356 10.0333 85.429 10.24 85.6156 10.4C85.8156 10.5467 86.2023 10.66 86.7756 10.74C87.349 10.82 88.2023 10.8867 89.3356 10.94C90.869 11.02 92.0823 11.18 92.9756 11.42C93.869 11.6467 94.509 12 94.8956 12.48C95.2823 12.96 95.4756 13.6067 95.4756 14.42C95.4756 15.5533 94.9356 16.4933 93.8556 17.24C92.789 17.9867 91.1956 18.36 89.0756 18.36ZM99.4208 18.28C98.6341 18.28 98.0741 18.1333 97.7408 17.84C97.4074 17.5333 97.2408 17.0133 97.2408 16.28C97.2408 15.5333 97.4274 15.0133 97.8008 14.72C98.1874 14.4133 98.7274 14.26 99.4208 14.26C100.127 14.26 100.661 14.4133 101.021 14.72C101.394 15.0133 101.581 15.5333 101.581 16.28C101.581 16.9867 101.401 17.5 101.041 17.82C100.681 18.1267 100.141 18.28 99.4208 18.28ZM107.951 18.36C106.431 18.36 105.271 18.0933 104.471 17.56C103.671 17.0133 103.271 16.2067 103.271 15.14V15.12C103.271 14.4667 103.411 13.8933 103.691 13.4C103.984 12.9067 104.431 12.5133 105.031 12.22C105.404 12.0333 105.804 11.88 106.231 11.76C106.671 11.64 107.231 11.54 107.911 11.46C108.604 11.3667 109.511 11.28 110.631 11.2C111.458 11.1467 112.098 11.08 112.551 11C113.018 10.92 113.344 10.8067 113.531 10.66C113.718 10.5133 113.811 10.3067 113.811 10.04V10.02C113.811 9.62 113.591 9.26667 113.151 8.96C112.711 8.65333 111.904 8.5 110.731 8.5C109.358 8.5 108.391 8.66667 107.831 9C107.284 9.33333 106.978 9.84 106.911 10.52H103.571C103.731 9.05333 104.398 7.96 105.571 7.24C106.744 6.50667 108.371 6.14 110.451 6.14C111.891 6.14 113.084 6.28 114.031 6.56C114.991 6.84 115.711 7.32 116.191 8C116.671 8.66667 116.911 9.58 116.911 10.74V18H114.291L113.991 15.36C113.538 16.2267 112.804 16.9467 111.791 17.52C110.791 18.08 109.511 18.36 107.951 18.36ZM108.931 16.04C109.891 16.04 110.738 15.8667 111.471 15.52C112.218 15.1733 112.798 14.7333 113.211 14.2C113.624 13.6667 113.831 13.12 113.831 12.56V12.38C113.658 12.58 113.344 12.74 112.891 12.86C112.451 12.98 111.818 13.0733 110.991 13.14C109.978 13.2067 109.204 13.2867 108.671 13.38C108.138 13.46 107.724 13.58 107.431 13.74C106.964 13.98 106.731 14.3333 106.731 14.8V14.82C106.731 15.22 106.898 15.5267 107.231 15.74C107.578 15.94 108.144 16.04 108.931 16.04ZM120.837 4.86C120.104 4.86 119.564 4.71333 119.217 4.42C118.884 4.12667 118.717 3.60667 118.717 2.86C118.717 2.12667 118.897 1.62 119.257 1.34C119.63 1.04667 120.157 0.9 120.837 0.9C121.504 0.9 122.017 1.04667 122.377 1.34C122.75 1.62 122.937 2.12667 122.937 2.86C122.937 3.55333 122.764 4.06 122.417 4.38C122.07 4.7 121.544 4.86 120.837 4.86ZM119.097 18V6.52H122.437V18H119.097Z" fill="#973131"/>
</svg>
