<svg width="156" height="27" viewBox="0 0 156 27" fill="none" xmlns="http://www.w3.org/2000/svg">
<path fill-rule="evenodd" clip-rule="evenodd" d="M14.0924 8.9552L13.5288 8.97726C12.1525 8.78712 10.7668 9.25259 9.78434 10.235C8.80197 11.2174 8.3365 12.6032 8.52664 13.9795L8.61703 14.6335C7.92543 14.0528 7.52606 13.196 7.52606 12.2929C7.52606 11.3898 7.92543 10.533 8.61703 9.95228C9.84217 8.92348 11.4599 8.49006 13.0354 8.7684L14.0924 8.9552ZM15.3021 10.2203L18.0831 9.84739C16.4828 7.25525 12.1332 6.19964 9.1141 7.74439C10.9755 6.36694 13.4827 6.04238 15.6888 7.02471C15.3823 5.99987 15.5118 4.89398 16.0467 3.96763C16.5815 3.04119 17.4745 2.3762 18.5152 2.12913L15.941 1.27952C15.9136 1.27048 15.8862 1.26176 15.8588 1.25296L14.7428 3.61295L15.2091 1.06786C13.5943 0.664638 11.9163 0.662366 10.3183 1.04625L10.5804 3.04536L9.83329 1.1753C9.05371 1.40333 8.29709 1.72504 7.58075 2.13863C6.96933 2.49161 6.40142 2.90359 5.8829 3.36555L6.38655 4.18053L5.53831 3.68677C4.57853 4.62432 3.81006 5.74235 3.27858 6.97761L5.7244 8.40596L3.03485 7.59903C2.87912 8.03731 2.7523 8.48824 2.65654 8.94929C2.38097 10.2761 2.37428 11.6444 2.63643 12.9732L4.39999 12.726L2.69562 13.2707C2.92493 14.4815 2.95413 15.7061 2.79501 16.8999L3.89544 16.6313L2.72388 17.3607C2.36205 19.4264 1.43301 21.3807 0 22.9871L1.75121 21.9652C4.18812 20.5429 5.92467 18.2338 6.64745 15.5808C5.44577 13.6197 5.497 11.2777 6.97272 9.68873C6.89684 9.80918 6.82442 9.93369 6.75634 10.063C5.93632 11.6203 5.93632 13.5657 6.75634 15.123C7.30026 16.1558 7.45281 17.396 7.17922 18.5595C6.90563 19.7229 6.22924 20.71 5.30495 21.2946C6.9455 20.8501 8.31163 20.6661 9.48406 20.673L9.48059 20.6719L10.5843 20.5855C12.1867 20.4601 13.7838 20.888 15.1087 21.7978C16.2255 22.5648 17.5717 22.9254 18.9224 22.8197C17.8447 23.1023 16.4696 22.9837 14.9039 22.0699C14.1496 21.6296 13.681 21.4325 13.0304 21.4203C15.7367 22.6505 17.3594 25.0792 20.7656 26.2378C19.6018 21.7582 18.7636 19.1758 18.4324 14.5543L16.232 13.7794C15.4288 13.4965 14.8 12.78 14.5517 11.8648L18.4765 13.0631L15.6226 11.4931L18.8197 12.7363C18.9281 14.1449 19.2389 17.0089 20.1192 18.0866L20.7136 17.6084C20.0521 16.3818 19.6865 15.0176 19.6462 13.6247L19.5516 10.361L15.3021 10.2203Z" fill="#2A50B0"/>
<path d="M38.3236 18.5H33.0456V16.078H38.3236C39.1636 16.078 39.4996 15.672 39.4996 14.902V9.036H42.0616V14.79C42.0616 17.114 40.8716 18.5 38.3236 18.5ZM50.1954 18.5H48.2074C46.5134 18.5 45.2674 17.912 44.3994 16.96C43.6434 16.134 43.1814 15.014 43.1814 13.768C43.1814 12.396 43.7694 11.15 44.7074 10.282C45.5474 9.512 46.6814 9.036 48.2074 9.036H50.1954C51.7214 9.036 52.8554 9.512 53.6954 10.282C54.6334 11.15 55.2214 12.396 55.2214 13.768C55.2214 15.014 54.7594 16.134 54.0034 16.96C53.1354 17.912 51.8894 18.5 50.1954 18.5ZM50.1954 11.542H48.2074C47.3534 11.542 46.8214 11.78 46.4154 12.158C45.9814 12.564 45.7154 13.152 45.7154 13.782C45.7154 14.356 45.9394 14.888 46.3034 15.28C46.7094 15.728 47.3114 16.008 48.2074 16.008H50.1954C51.0914 16.008 51.6934 15.728 52.0994 15.28C52.4634 14.888 52.6874 14.356 52.6874 13.782C52.6874 13.152 52.4214 12.564 51.9874 12.158C51.5814 11.78 51.0494 11.542 50.1954 11.542ZM56.4484 9.036H58.9964V18.5H56.4484V9.036ZM72.1589 9.036V16.666C72.1589 18.094 71.3049 18.696 70.3809 18.696C69.5829 18.696 68.9809 18.472 68.5329 17.954L63.3389 11.948C63.2689 11.864 63.1989 11.822 63.1149 11.822C62.9889 11.822 62.8769 11.92 62.8769 12.088V18.5H60.3849V11.038C60.3849 9.428 61.3089 8.826 62.5829 8.826C63.4789 8.826 64.0389 9.064 64.6269 9.764L69.2469 15.294C69.3169 15.392 69.4009 15.406 69.4849 15.406C69.5969 15.406 69.6809 15.322 69.6809 15.154V9.036H72.1589ZM81.655 10.576L85.071 18.08C85.141 18.234 85.183 18.36 85.225 18.5H82.369C82.341 18.374 82.299 18.276 82.257 18.178L81.753 17.03H76.153L75.663 18.164C75.621 18.276 75.579 18.388 75.565 18.5H72.639C72.681 18.36 72.723 18.234 72.793 18.08L76.181 10.576C76.713 9.4 77.567 8.826 78.925 8.826C80.241 8.826 81.123 9.4 81.655 10.576ZM77.077 14.944H80.829L79.373 11.556C79.289 11.346 79.121 11.262 78.939 11.262C78.771 11.262 78.617 11.332 78.519 11.556L77.077 14.944ZM88.7594 15.14V18.5H86.2254V9.624C86.2254 9.232 86.4354 9.036 86.8554 9.036H93.5754C94.7374 9.036 95.4794 9.386 95.9974 9.932C96.4594 10.422 96.7534 11.08 96.7534 11.794C96.7534 12.55 96.5294 13.264 95.8574 13.754C96.4874 14.132 96.7674 14.636 96.7674 15.714V17.604C96.7674 18.01 96.7814 18.234 96.8094 18.5H94.2474C94.2194 18.29 94.2054 18.08 94.2054 17.87V15.98C94.2054 15.378 93.9114 15.14 93.1694 15.14H88.7594ZM88.7594 12.984H93.2394C93.5894 12.984 93.7994 12.858 93.9534 12.676C94.0654 12.536 94.1354 12.368 94.1354 12.186C94.1354 11.99 94.0654 11.794 93.9254 11.654C93.7854 11.5 93.5614 11.402 93.2394 11.402H88.9694C88.8294 11.402 88.7594 11.486 88.7594 11.612V12.984ZM99.3405 9.036H107.951V11.542H100.755C100.601 11.542 100.531 11.626 100.531 11.78V12.858H107.909V14.678H100.531V15.826C100.531 15.994 100.601 16.078 100.755 16.078H107.951V18.5H99.3265C98.4445 18.5 97.9965 18.066 97.9965 17.184V10.31C97.9965 9.456 98.4445 9.036 99.3405 9.036ZM120.885 9.036V16.666C120.885 18.094 120.031 18.696 119.107 18.696C118.309 18.696 117.707 18.472 117.259 17.954L112.065 11.948C111.995 11.864 111.925 11.822 111.841 11.822C111.715 11.822 111.603 11.92 111.603 12.088V18.5H109.111V11.038C109.111 9.428 110.035 8.826 111.309 8.826C112.205 8.826 112.765 9.064 113.353 9.764L117.973 15.294C118.043 15.392 118.127 15.406 118.211 15.406C118.323 15.406 118.407 15.322 118.407 15.154V9.036H120.885ZM130.382 10.576L133.798 18.08C133.868 18.234 133.91 18.36 133.952 18.5H131.096C131.068 18.374 131.026 18.276 130.984 18.178L130.48 17.03H124.88L124.39 18.164C124.348 18.276 124.306 18.388 124.292 18.5H121.366C121.408 18.36 121.45 18.234 121.52 18.08L124.908 10.576C125.44 9.4 126.294 8.826 127.652 8.826C128.968 8.826 129.85 9.4 130.382 10.576ZM125.804 14.944H129.556L128.1 11.556C128.016 11.346 127.848 11.262 127.666 11.262C127.498 11.262 127.344 11.332 127.246 11.556L125.804 14.944ZM135.078 16.036H137.626V18.5H135.078V16.036ZM147.731 10.576L151.147 18.08C151.217 18.234 151.259 18.36 151.301 18.5H148.445C148.417 18.374 148.375 18.276 148.333 18.178L147.829 17.03H142.229L141.739 18.164C141.697 18.276 141.655 18.388 141.641 18.5H138.715C138.757 18.36 138.799 18.234 138.869 18.08L142.257 10.576C142.789 9.4 143.643 8.826 145.001 8.826C146.317 8.826 147.199 9.4 147.731 10.576ZM143.153 14.944H146.905L145.449 11.556C145.365 11.346 145.197 11.262 145.015 11.262C144.847 11.262 144.693 11.332 144.595 11.556L143.153 14.944ZM152.316 9.036H154.864V18.5H152.316V9.036Z" fill="black" fill-opacity="0.8"/>
</svg>
