<svg width="1624" height="270" viewBox="0 0 1624 270" fill="none" xmlns="http://www.w3.org/2000/svg">
<path fill-rule="evenodd" clip-rule="evenodd" d="M74.586 64.7226C74.586 47.755 88.4084 34 105.459 34H110.843C127.894 34 141.716 47.755 141.716 64.7226V66.659L128.411 78.4283L123.168 83.42V63.9459C123.168 56.7282 117.289 50.8771 110.036 50.8771H104.652C97.3989 50.8771 91.5191 56.7282 91.5191 63.9459V119.592H35.834C28.581 119.592 22.7012 125.443 22.7012 132.661V138.019C22.7012 145.236 28.581 151.087 35.834 151.087H91.5191V206.501C91.5191 213.718 97.3989 219.569 104.652 219.569H110.036C117.289 219.569 123.168 213.718 123.168 206.501V151.087H179.088C186.341 151.087 192.22 145.236 192.22 138.019V132.661C192.22 129.528 191.123 126.673 189.283 124.422C187.685 122.468 185 118.5 176.5 118.5L183.049 112.216L190.564 105.351C195.738 106.332 200.127 109.503 203.85 114.056C208.171 119.34 210.768 126.099 210.768 133.438V138.795C210.768 155.763 196.946 169.518 179.895 169.518H141.716V207.277C141.716 224.245 127.894 238 110.843 238H105.459C88.4084 238 74.586 224.245 74.586 207.277V169.518H36.6413C19.5905 169.518 5.76807 155.763 5.76807 138.795V133.438C5.76807 116.47 19.5905 102.715 36.6413 102.715H74.586V64.7226Z" fill="url(#paint0_linear_107_2040)"/>
<path fill-rule="evenodd" clip-rule="evenodd" d="M209.618 45.6916C205.163 40.4113 200.029 37.5057 194.357 37.06C185.482 36.3627 178.565 41.9407 176.668 43.6668C173.98 46.0889 122.782 92.7165 122.782 92.7165C122.183 93.2736 121.724 93.9728 121.456 94.7782C119.307 101.201 113.901 123.172 111.447 129.841C111.088 130.819 110.878 131.389 110.863 131.43C110.242 133.103 110.549 135.002 111.648 136.343C112.43 137.316 113.537 137.887 114.701 137.979C115.16 138.015 115.623 137.983 116.088 137.866C116.422 137.778 145.652 132.861 151.112 131.586C151.833 131.42 152.502 131.068 153.071 130.56C153.603 130.08 155.567 128.315 158.549 125.634C175.868 110.065 202.5 86.4686 207.348 81.8947C213.226 76.3604 216.378 70.3726 216.734 64.091C217.085 57.883 214.687 51.6928 209.623 45.6977L209.618 45.6916ZM150.856 117.664C197.023 76.1614 197.046 76.4171 200.25 73.3972L200.249 73.4085C203.909 69.9571 205.86 66.6051 206.037 63.4499C206.212 60.3801 204.727 56.9747 201.63 53.3001C199.042 50.2241 196.384 48.6245 193.524 48.3997C188.486 48.0039 184.089 51.8591 183.606 52.2999C181.13 54.5278 140.845 91.2004 130.973 100.2C129.018 105.82 128.723 114.019 125.124 123.842C134.248 121.492 142.29 122.075 147.323 120.847L150.856 117.664Z" fill="url(#paint1_linear_107_2040)"/>
<path d="M200.25 73.3972C197.046 76.4171 197.023 76.1614 150.856 117.664L147.323 120.847C142.29 122.075 134.248 121.492 125.124 123.842C128.723 114.019 129.018 105.82 130.973 100.2C140.845 91.2004 181.13 54.5278 183.606 52.2999C184.089 51.8591 188.486 48.0039 193.524 48.3997C196.384 48.6245 199.042 50.2241 201.63 53.3001C204.727 56.9747 206.212 60.3801 206.037 63.4499C205.86 66.6051 203.909 69.9571 200.249 73.4085L200.25 73.3972Z" fill="url(#paint2_linear_107_2040)"/>
<path d="M301.348 199.62C293.188 199.62 285.868 198.18 279.388 195.3C272.908 192.3 267.748 188.28 263.908 183.24C260.188 178.2 258.148 172.62 257.788 166.5H283.168C283.648 170.34 285.508 173.52 288.748 176.04C292.108 178.56 296.248 179.82 301.168 179.82C305.968 179.82 309.688 178.86 312.328 176.94C315.088 175.02 316.468 172.56 316.468 169.56C316.468 166.32 314.788 163.92 311.428 162.36C308.188 160.68 302.968 158.88 295.768 156.96C288.328 155.16 282.208 153.3 277.408 151.38C272.728 149.46 268.648 146.52 265.168 142.56C261.808 138.6 260.128 133.26 260.128 126.54C260.128 121.02 261.688 115.98 264.808 111.42C268.048 106.86 272.608 103.26 278.488 100.62C284.488 97.98 291.508 96.66 299.548 96.66C311.428 96.66 320.908 99.66 327.988 105.66C335.068 111.54 338.968 119.52 339.688 129.6H315.568C315.208 125.64 313.528 122.52 310.528 120.24C307.648 117.84 303.748 116.64 298.828 116.64C294.268 116.64 290.728 117.48 288.208 119.16C285.808 120.84 284.608 123.18 284.608 126.18C284.608 129.54 286.288 132.12 289.648 133.92C293.008 135.6 298.228 137.34 305.308 139.14C312.508 140.94 318.448 142.8 323.128 144.72C327.808 146.64 331.828 149.64 335.188 153.72C338.668 157.68 340.468 162.96 340.588 169.56C340.588 175.32 338.968 180.48 335.728 185.04C332.608 189.6 328.048 193.2 322.048 195.84C316.168 198.36 309.268 199.62 301.348 199.62ZM354.794 148.14C354.794 137.82 356.894 128.82 361.094 121.14C365.294 113.34 371.114 107.34 378.554 103.14C385.994 98.82 394.514 96.66 404.114 96.66C416.474 96.66 426.674 99.78 434.714 106.02C442.874 112.14 448.334 120.78 451.094 131.94H423.914C422.474 127.62 420.014 124.26 416.534 121.86C413.174 119.34 408.974 118.08 403.934 118.08C396.734 118.08 391.034 120.72 386.834 126C382.634 131.16 380.534 138.54 380.534 148.14C380.534 157.62 382.634 165 386.834 170.28C391.034 175.44 396.734 178.02 403.934 178.02C414.134 178.02 420.794 173.46 423.914 164.34H451.094C448.334 175.14 442.874 183.72 434.714 190.08C426.554 196.44 416.354 199.62 404.114 199.62C394.514 199.62 385.994 197.52 378.554 193.32C371.114 189 365.294 183 361.094 175.32C356.894 167.52 354.794 158.46 354.794 148.14ZM494.755 113.76C497.995 108.48 502.195 104.34 507.355 101.34C512.635 98.34 518.635 96.84 525.355 96.84V123.3H518.695C510.775 123.3 504.775 125.16 500.695 128.88C496.735 132.6 494.755 139.08 494.755 148.32V198H469.555V98.28H494.755V113.76ZM555.109 86.4C550.669 86.4 546.949 85.02 543.949 82.26C541.069 79.38 539.629 75.84 539.629 71.64C539.629 67.44 541.069 63.96 543.949 61.2C546.949 58.32 550.669 56.88 555.109 56.88C559.549 56.88 563.209 58.32 566.089 61.2C569.089 63.96 570.589 67.44 570.589 71.64C570.589 75.84 569.089 79.38 566.089 82.26C563.209 85.02 559.549 86.4 555.109 86.4ZM567.529 98.28V198H542.329V98.28H567.529ZM617.626 112.86C620.866 108.06 625.306 104.16 630.946 101.16C636.706 98.16 643.246 96.66 650.566 96.66C659.086 96.66 666.766 98.76 673.606 102.96C680.566 107.16 686.026 113.16 689.986 120.96C694.066 128.64 696.106 137.58 696.106 147.78C696.106 157.98 694.066 167.04 689.986 174.96C686.026 182.76 680.566 188.82 673.606 193.14C666.766 197.46 659.086 199.62 650.566 199.62C643.126 199.62 636.586 198.18 630.946 195.3C625.426 192.3 620.986 188.46 617.626 183.78V198H592.426V64.8H617.626V112.86ZM670.366 147.78C670.366 141.78 669.106 136.62 666.586 132.3C664.186 127.86 660.946 124.5 656.866 122.22C652.906 119.94 648.586 118.8 643.906 118.8C639.346 118.8 635.026 120 630.946 122.4C626.986 124.68 623.746 128.04 621.226 132.48C618.826 136.92 617.626 142.14 617.626 148.14C617.626 154.14 618.826 159.36 621.226 163.8C623.746 168.24 626.986 171.66 630.946 174.06C635.026 176.34 639.346 177.48 643.906 177.48C648.586 177.48 652.906 176.28 656.866 173.88C660.946 171.48 664.186 168.06 666.586 163.62C669.106 159.18 670.366 153.9 670.366 147.78ZM807.119 145.98C807.119 149.58 806.879 152.82 806.399 155.7H733.499C734.099 162.9 736.619 168.54 741.059 172.62C745.499 176.7 750.959 178.74 757.439 178.74C766.799 178.74 773.459 174.72 777.419 166.68H804.599C801.719 176.28 796.199 184.2 788.039 190.44C779.879 196.56 769.859 199.62 757.979 199.62C748.379 199.62 739.739 197.52 732.059 193.32C724.499 189 718.559 182.94 714.239 175.14C710.039 167.34 707.939 158.34 707.939 148.14C707.939 137.82 710.039 128.76 714.239 120.96C718.439 113.16 724.319 107.16 731.879 102.96C739.439 98.76 748.139 96.66 757.979 96.66C767.459 96.66 775.919 98.7 783.359 102.78C790.919 106.86 796.739 112.68 800.819 120.24C805.019 127.68 807.119 136.26 807.119 145.98ZM781.019 138.78C780.899 132.3 778.559 127.14 773.999 123.3C769.439 119.34 763.859 117.36 757.259 117.36C751.019 117.36 745.739 119.28 741.419 123.12C737.219 126.84 734.639 132.06 733.679 138.78H781.019ZM881.672 96.84C889.232 96.84 895.952 98.52 901.832 101.88C907.712 105.12 912.272 109.98 915.512 116.46C918.872 122.82 920.552 130.5 920.552 139.5V198H895.352V142.92C895.352 135 893.372 128.94 889.412 124.74C885.452 120.42 880.052 118.26 873.212 118.26C866.252 118.26 860.732 120.42 856.652 124.74C852.692 128.94 850.712 135 850.712 142.92V198H825.512V64.8H850.712V110.7C853.952 106.38 858.272 103.02 863.672 100.62C869.072 98.1 875.072 96.84 881.672 96.84ZM1037.22 145.98C1037.22 149.58 1036.98 152.82 1036.5 155.7H963.596C964.196 162.9 966.716 168.54 971.156 172.62C975.596 176.7 981.056 178.74 987.536 178.74C996.896 178.74 1003.56 174.72 1007.52 166.68H1034.7C1031.82 176.28 1026.3 184.2 1018.14 190.44C1009.98 196.56 999.956 199.62 988.076 199.62C978.476 199.62 969.836 197.52 962.156 193.32C954.596 189 948.656 182.94 944.336 175.14C940.136 167.34 938.036 158.34 938.036 148.14C938.036 137.82 940.136 128.76 944.336 120.96C948.536 113.16 954.416 107.16 961.976 102.96C969.536 98.76 978.236 96.66 988.076 96.66C997.556 96.66 1006.02 98.7 1013.46 102.78C1021.02 106.86 1026.84 112.68 1030.92 120.24C1035.12 127.68 1037.22 136.26 1037.22 145.98ZM1011.12 138.78C1011 132.3 1008.66 127.14 1004.1 123.3C999.536 119.34 993.956 117.36 987.356 117.36C981.116 117.36 975.836 119.28 971.516 123.12C967.316 126.84 964.736 132.06 963.776 138.78H1011.12ZM1049.13 147.78C1049.13 137.7 1051.11 128.76 1055.07 120.96C1059.15 113.16 1064.61 107.16 1071.45 102.96C1078.41 98.76 1086.15 96.66 1094.67 96.66C1102.11 96.66 1108.59 98.16 1114.11 101.16C1119.75 104.16 1124.25 107.94 1127.61 112.5V98.28H1152.99V198H1127.61V183.42C1124.37 188.1 1119.87 192 1114.11 195.12C1108.47 198.12 1101.93 199.62 1094.49 199.62C1086.09 199.62 1078.41 197.46 1071.45 193.14C1064.61 188.82 1059.15 182.76 1055.07 174.96C1051.11 167.04 1049.13 157.98 1049.13 147.78ZM1127.61 148.14C1127.61 142.02 1126.41 136.8 1124.01 132.48C1121.61 128.04 1118.37 124.68 1114.29 122.4C1110.21 120 1105.83 118.8 1101.15 118.8C1096.47 118.8 1092.15 119.94 1088.19 122.22C1084.23 124.5 1080.99 127.86 1078.47 132.3C1076.07 136.62 1074.87 141.78 1074.87 147.78C1074.87 153.78 1076.07 159.06 1078.47 163.62C1080.99 168.06 1084.23 171.48 1088.19 173.88C1092.27 176.28 1096.59 177.48 1101.15 177.48C1105.83 177.48 1110.21 176.34 1114.29 174.06C1118.37 171.66 1121.61 168.3 1124.01 163.98C1126.41 159.54 1127.61 154.26 1127.61 148.14ZM1202.8 64.8V198H1177.6V64.8H1202.8ZM1257.04 118.98V167.22C1257.04 170.58 1257.82 173.04 1259.38 174.6C1261.06 176.04 1263.82 176.76 1267.66 176.76H1279.36V198H1263.52C1242.28 198 1231.66 187.68 1231.66 167.04V118.98H1219.78V98.28H1231.66V73.62H1257.04V98.28H1279.36V118.98H1257.04ZM1353.64 96.84C1361.2 96.84 1367.92 98.52 1373.8 101.88C1379.68 105.12 1384.24 109.98 1387.48 116.46C1390.84 122.82 1392.52 130.5 1392.52 139.5V198H1367.32V142.92C1367.32 135 1365.34 128.94 1361.38 124.74C1357.42 120.42 1352.02 118.26 1345.18 118.26C1338.22 118.26 1332.7 120.42 1328.62 124.74C1324.66 128.94 1322.68 135 1322.68 142.92V198H1297.48V64.8H1322.68V110.7C1325.92 106.38 1330.24 103.02 1335.64 100.62C1341.04 98.1 1347.04 96.84 1353.64 96.84ZM1427.65 199.26C1423.09 199.26 1419.31 197.88 1416.31 195.12C1413.43 192.24 1411.99 188.7 1411.99 184.5C1411.99 180.3 1413.43 176.82 1416.31 174.06C1419.31 171.18 1423.09 169.74 1427.65 169.74C1432.09 169.74 1435.75 171.18 1438.63 174.06C1441.51 176.82 1442.95 180.3 1442.95 184.5C1442.95 188.7 1441.51 192.24 1438.63 195.12C1435.75 197.88 1432.09 199.26 1427.65 199.26Z" fill="#242424"/>
<path d="M1456.77 147.78C1456.77 137.7 1458.75 128.76 1462.71 120.96C1466.79 113.16 1472.25 107.16 1479.09 102.96C1486.05 98.76 1493.79 96.66 1502.31 96.66C1509.75 96.66 1516.23 98.16 1521.75 101.16C1527.39 104.16 1531.89 107.94 1535.25 112.5V98.28H1560.63V198H1535.25V183.42C1532.01 188.1 1527.51 192 1521.75 195.12C1516.11 198.12 1509.57 199.62 1502.13 199.62C1493.73 199.62 1486.05 197.46 1479.09 193.14C1472.25 188.82 1466.79 182.76 1462.71 174.96C1458.75 167.04 1456.77 157.98 1456.77 147.78ZM1535.25 148.14C1535.25 142.02 1534.05 136.8 1531.65 132.48C1529.25 128.04 1526.01 124.68 1521.93 122.4C1517.85 120 1513.47 118.8 1508.79 118.8C1504.11 118.8 1499.79 119.94 1495.83 122.22C1491.87 124.5 1488.63 127.86 1486.11 132.3C1483.71 136.62 1482.51 141.78 1482.51 147.78C1482.51 153.78 1483.71 159.06 1486.11 163.62C1488.63 168.06 1491.87 171.48 1495.83 173.88C1499.91 176.28 1504.23 177.48 1508.79 177.48C1513.47 177.48 1517.85 176.34 1521.93 174.06C1526.01 171.66 1529.25 168.3 1531.65 163.98C1534.05 159.54 1535.25 154.26 1535.25 148.14ZM1598.02 86.4C1593.58 86.4 1589.86 85.02 1586.86 82.26C1583.98 79.38 1582.54 75.84 1582.54 71.64C1582.54 67.44 1583.98 63.96 1586.86 61.2C1589.86 58.32 1593.58 56.88 1598.02 56.88C1602.46 56.88 1606.12 58.32 1609 61.2C1612 63.96 1613.5 67.44 1613.5 71.64C1613.5 75.84 1612 79.38 1609 82.26C1606.12 85.02 1602.46 86.4 1598.02 86.4ZM1610.44 98.28V198H1585.24V98.28H1610.44Z" fill="url(#paint3_linear_107_2040)"/>
<defs>
<linearGradient id="paint0_linear_107_2040" x1="108.268" y1="16.4688" x2="108.268" y2="252.344" gradientUnits="userSpaceOnUse">
<stop stop-color="#6731D7"/>
<stop offset="1" stop-color="#5429AE"/>
</linearGradient>
<linearGradient id="paint1_linear_107_2040" x1="160.268" y1="27.8047" x2="160.268" y2="151.523" gradientUnits="userSpaceOnUse">
<stop stop-color="#6731D7"/>
<stop offset="1" stop-color="#5429AE"/>
</linearGradient>
<linearGradient id="paint2_linear_107_2040" x1="160.268" y1="27.8047" x2="160.268" y2="151.523" gradientUnits="userSpaceOnUse">
<stop stop-color="#6731D7"/>
<stop offset="1" stop-color="#5429AE"/>
</linearGradient>
<linearGradient id="paint3_linear_107_2040" x1="937.268" y1="-23.2031" x2="937.268" y2="288.984" gradientUnits="userSpaceOnUse">
<stop stop-color="#6731D7"/>
<stop offset="1" stop-color="#5429AE"/>
</linearGradient>
</defs>
</svg>
